<?xml version="1.0" standalone="no"?>
<!DOCTYPE svg PUBLIC "-//W3C//DTD SVG 20010904//EN"
 "http://www.w3.org/TR/2001/REC-SVG-20010904/DTD/svg10.dtd">
<svg version="1.0" xmlns="http://www.w3.org/2000/svg"
 width="560.000000pt" height="560.000000pt" viewBox="0 0 560.000000 560.000000"
 preserveAspectRatio="xMidYMid meet">
<metadata>
Created by potrace 1.11, written by Peter Selinger 2001-2013
</metadata>
<g transform="translate(0.000000,560.000000) scale(0.100000,-0.100000)"
fill="#000000" stroke="none">
<path d="M1163 5209 c-40 -5 -115 -23 -168 -40 -330 -110 -565 -400 -605 -750
-8 -65 -10 -582 -8 -1664 l3 -1570 22 -77 c51 -179 123 -305 242 -423 123
-121 258 -196 439 -243 62 -16 183 -17 1692 -17 1801 0 1657 -5 1838 65 212
81 411 280 492 492 70 181 65 37 65 1838 0 1509 -1 1630 -17 1692 -47 181
-122 316 -243 439 -118 119 -244 191 -423 242 l-77 22 -1590 1 c-875 1 -1623
-2 -1662 -7z m2227 -1804 c0 -945 -3 -1037 -41 -1195 -104 -425 -446 -685
-934 -707 -283 -13 -544 52 -744 185 -85 56 -227 187 -269 249 l-22 31 241
229 c132 125 244 229 249 231 4 2 36 -27 71 -63 127 -132 251 -191 388 -183
132 8 221 75 268 203 17 47 18 109 21 993 l2 942 385 0 385 0 0 -915z"/>
</g>
</svg>
