<?xml version="1.0" encoding="UTF-8"?>
<svg width="393px" height="354px" viewBox="0 0 393 354" version="1.1" xmlns="http://www.w3.org/2000/svg" xmlns:xlink="http://www.w3.org/1999/xlink">
    <!-- Generator: Sketch 42 (36781) - http://www.bohemiancoding.com/sketch -->
    <title>Not Found</title>
    <desc>Created with Sketch.</desc>
    <defs>
        <path d="M104.011599,148 C104.003876,147.50094 104,147.00093 104,146.5 C104,94.8613759 145.189803,53 196,53 C246.810197,53 288,94.8613759 288,146.5 C288,147.00093 287.996124,147.50094 287.988401,148 L288,148 L288,287 L265.469388,258.303226 L242,287 L219.469388,258.303226 L196,287 L172.530612,258.303226 L150,287 L126.530612,258.303226 L104,287 L104,148 L104.011599,148 Z" id="path-1"></path>
        <mask id="mask-2" maskContentUnits="userSpaceOnUse" maskUnits="objectBoundingBox" x="0" y="0" width="184" height="234" fill="white">
            <use xlink:href="#path-1"></use>
        </mask>
        <circle id="path-3" cx="260" cy="15" r="15"></circle>
        <mask id="mask-4" maskContentUnits="userSpaceOnUse" maskUnits="objectBoundingBox" x="0" y="0" width="30" height="30" fill="white">
            <use xlink:href="#path-3"></use>
        </mask>
        <circle id="path-5" cx="21" cy="156" r="21"></circle>
        <mask id="mask-6" maskContentUnits="userSpaceOnUse" maskUnits="objectBoundingBox" x="0" y="0" width="42" height="42" fill="white">
            <use xlink:href="#path-5"></use>
        </mask>
    </defs>
    <g id="Page-1" stroke="none" stroke-width="1" fill="none" fill-rule="evenodd">
        <g id="Desktop-HD" transform="translate(-483.000000, -920.000000)">
            <g id="Not-Found" transform="translate(483.000000, 920.000000)">
                <use id="Combined-Shape" stroke="#CAC7C2" mask="url(#mask-2)" stroke-width="12" xlink:href="#path-1"></use>
                <path d="M164.494959,156.252318 L172.627245,148.120032 C173.792992,146.954285 173.79826,145.049522 172.626687,143.87795 C171.457498,142.708761 169.555869,142.706127 168.384604,143.877391 L160.252318,152.009678 L152.120032,143.877391 C150.954285,142.711645 149.049522,142.706377 147.87795,143.87795 C146.708761,145.047139 146.706127,146.948767 147.877391,148.120032 L156.009678,156.252318 L147.877391,164.384604 C146.711645,165.550351 146.706377,167.455114 147.87795,168.626687 C149.047139,169.795876 150.948767,169.79851 152.120032,168.627245 L160.252318,160.494959 L168.384604,168.627245 C169.550351,169.792992 171.455114,169.79826 172.626687,168.626687 C173.795876,167.457498 173.79851,165.555869 172.627245,164.384604 L164.494959,156.252318 Z" id="Combined-Shape" fill="#CAC7C2"></path>
                <rect id="Rectangle-4" fill="#CAC7C2" x="175" y="205" width="42" height="6" rx="3"></rect>
                <path d="M235.494959,156.252318 L243.627245,148.120032 C244.792992,146.954285 244.79826,145.049522 243.626687,143.87795 C242.457498,142.708761 240.555869,142.706127 239.384604,143.877391 L231.252318,152.009678 L223.120032,143.877391 C221.954285,142.711645 220.049522,142.706377 218.87795,143.87795 C217.708761,145.047139 217.706127,146.948767 218.877391,148.120032 L227.009678,156.252318 L218.877391,164.384604 C217.711645,165.550351 217.706377,167.455114 218.87795,168.626687 C220.047139,169.795876 221.948767,169.79851 223.120032,168.627245 L231.252318,160.494959 L239.384604,168.627245 C240.550351,169.792992 242.455114,169.79826 243.626687,168.626687 C244.795876,167.457498 244.79851,165.555869 243.627245,164.384604 L235.494959,156.252318 Z" id="Combined-Shape" fill="#CAC8C2"></path>
                <path d="M83.1428571,13 L83.1428571,1.99161703 C83.1428571,0.89784041 82.2474266,0 81.1428571,0 C80.0305868,0 79.1428571,0.891677316 79.1428571,1.99161703 L79.1428571,13 L67.991617,13 C66.8978404,13 66,13.8954305 66,15 C66,16.1122704 66.8916773,17 67.991617,17 L79.1428571,17 L79.1428571,28.008383 C79.1428571,29.1021596 80.0382876,30 81.1428571,30 C82.2551275,30 83.1428571,29.1083227 83.1428571,28.008383 L83.1428571,17 L94.008383,17 C95.1021596,17 96,16.1045695 96,15 C96,13.8877296 95.1083227,13 94.008383,13 L83.1428571,13 Z" id="Combined-Shape-Copy" fill="#CAC8C2"></path>
                <path d="M380.142857,224 L380.142857,212.991617 C380.142857,211.89784 379.247427,211 378.142857,211 C377.030587,211 376.142857,211.891677 376.142857,212.991617 L376.142857,224 L364.991617,224 C363.89784,224 363,224.895431 363,226 C363,227.11227 363.891677,228 364.991617,228 L376.142857,228 L376.142857,239.008383 C376.142857,240.10216 377.038288,241 378.142857,241 C379.255127,241 380.142857,240.108323 380.142857,239.008383 L380.142857,228 L391.008383,228 C392.10216,228 393,227.104569 393,226 C393,224.88773 392.108323,224 391.008383,224 L380.142857,224 Z" id="Combined-Shape-Copy-2" fill="#CAC8C2"></path>
                <use id="Oval-2" stroke="#CAC7C2" mask="url(#mask-4)" stroke-width="8" xlink:href="#path-3"></use>
                <use id="Oval-2-Copy" stroke="#CAC7C2" mask="url(#mask-6)" stroke-width="8" xlink:href="#path-5"></use>
                <ellipse id="Oval-3" fill="#DFDFDF" cx="196" cy="340.406805" rx="74" ry="13"></ellipse>
                <ellipse id="Oval-4" fill="#DEDEDE" cx="45.5" cy="329.5" rx="9.5" ry="4.5"></ellipse>
                <ellipse id="Oval-4-Copy" fill="#DEDEDE" cx="365.5" cy="320.5" rx="9.5" ry="4.5"></ellipse>
            </g>
        </g>
    </g>
</svg>